<?xml version="1.0" standalone="no"?>
<!DOCTYPE svg PUBLIC "-//W3C//DTD SVG 20010904//EN" "http://www.w3.org/TR/2001/REC-SVG-20010904/DTD/svg10.dtd">
<svg version="1.0" xmlns="http://www.w3.org/2000/svg" width="144.000000pt" height="85.000000pt" viewBox="0 0 144.000000 85.000000" preserveAspectRatio="xMidYMid meet">
	<g transform="translate(0.000000,85.000000) scale(0.100000,-0.100000)" fill="#F36616" stroke="none">
		<path d="M308 811 c-79 -26 -136 -61 -190 -119 -148 -158 -148 -376 0 -534 55
-59 111 -94 193 -119 102 -32 122 -24 42 16 -85 42 -163 121 -201 202 -24 52
-27 69 -27 168 0 99 3 116 27 168 38 81 116 160 201 202 57 29 64 35 41 34
-16 0 -55 -8 -86 -18z" />
		<path d="M525 812 c-248 -86 -366 -343 -257 -559 57 -112 200 -215 317 -229
l50 -5 -61 30 c-76 38 -166 131 -202 208 -24 52 -27 69 -27 168 0 98 3 116 27
167 44 95 144 189 237 223 l36 14 -35 0 c-19 0 -58 -7 -85 -17z" />
		<path d="M926 795 c69 -34 149 -117 187 -195 30 -61 32 -71 32 -175 0 -102 -2
-114 -31 -175 -37 -77 -115 -159 -187 -195 -28 -14 -44 -25 -35 -25 37 0 157
72 205 123 92 97 128 203 111 330 -16 120 -108 241 -231 302 -38 19 -77 35
-85 35 -9 0 6 -11 34 -25z" />
		<path d="M662 784 c-72 -36 -144 -108 -182 -183 -98 -195 -17 -432 183 -536
l57 -30 56 29 c199 104 282 342 185 534 -34 67 -100 138 -163 175 -67 39 -79
40 -136 11z" />
		<path d="M1237 726 c43 -39 73 -79 95 -124 31 -63 33 -73 33 -177 0 -104 -2
-114 -33 -177 -22 -45 -52 -85 -95 -124 -44 -41 -52 -52 -29 -38 50 28 126
113 156 173 50 97 50 235 0 333 -30 59 -107 144 -156 172 -23 14 -15 3 29 -38z" />
	</g>
</svg>
