<?xml version="1.0" standalone="no"?>
<!DOCTYPE svg PUBLIC "-//W3C//DTD SVG 20010904//EN" "http://www.w3.org/TR/2001/REC-SVG-20010904/DTD/svg10.dtd">
<svg version="1.0" xmlns="http://www.w3.org/2000/svg" width="50pt" height="50pt" viewBox="0 0 422.000000 637.000000" preserveAspectRatio="xMidYMid meet">
	<g transform="translate(0.000000,637.000000) scale(0.100000,-0.100000)" fill="#A8272C" stroke="none">
		<path d="M573 5566 c-192 -63 -295 -279 -223 -469 31 -81 114 -166 195 -197
117 -45 254 -27 349 46 166 127 186 370 43 521 -71 75 -139 106 -241 110 -50
2 -97 -2 -123 -11z" />
		<path d="M380 4720 l-45 -5 0 -1530 0 -1530 23 -75 c40 -127 88 -206 182 -300
47 -47 111 -100 142 -119 89 -52 219 -93 315 -99 l83 -5 0 1137 0 1136 300 0
300 0 0 -1117 c1 -1202 0 -1193 53 -1335 98 -267 345 -454 640 -484 l67 -7 0
1472 0 1471 655 0 655 0 0 365 0 365 -1334 0 -1333 0 -7 62 c-21 182 -119 357
-261 465 -129 98 -296 149 -435 133z m3115 -788 c47 -24 105 -83 131 -132 14
-26 19 -57 19 -115 0 -90 -14 -125 -74 -188 -59 -63 -104 -82 -196 -82 -69 0
-86 4 -125 27 -60 35 -94 73 -121 133 -62 140 12 317 155 369 56 21 159 15
211 -12z" />
		<path d="M3020 1555 l0 -1555 35 0 c77 0 192 32 295 82 90 43 116 62 186 133
67 67 91 101 128 177 87 177 80 55 84 1466 l3 1252 -366 0 -365 0 0 -1555z" />
	</g>
</svg>
